<mxfile host="app.diagrams.net" modified="2024-03-12T07:54:27.290Z" agent="Mozilla/5.0 (Macintosh; Intel Mac OS X 10_15_7) AppleWebKit/537.36 (KHTML, like Gecko) Chrome/122.0.0.0 Safari/537.36" version="24.0.5" etag="JwA5nsBrogBEv2LCj90s" type="github">
  <diagram name="第 1 页" id="LPpcoqIUgxd-1k3hOBR2">
    <mxGraphModel>
      <root>
        <mxCell id="0" />
        <mxCell id="1" parent="0" />
      </root>
    </mxGraphModel>
  </diagram>
</mxfile>
